PathFileType	4	(X/Y/Z)	Patient4_TMGait_0pt4_01_left_38.trc.trc
DataRate	CameraRate	NumFrames	NumMarkers	Units	OrigDataRate	OrigDataStartFrame	OrigNumFrames
76.923076923077	76.923076923077	6	33	mm	76.923076923077	124	       141
Frame#	Time	Sacral			L.Shoulder			Chest			R.Shoulder			Neck			R.ASIS			L.ASIS			R.Thigh.Superior			R.Thigh.Lateral			R.Thigh.Inferior			R.Patella			L.Thigh.Superior			L.Thigh.Lateral			L.Thigh.Inferior			L.Patella			L.Shank.Superior			L.Shank.Lateral			L.Shank.Inferior			R.Shank.Superior			R.Shank.Lateral			R.Shank.Inferior			R.Heel			R.Midfoot.Superior			R.Midfoot.Lateral			R.Toe			L.Heel			L.Midfoot.Lateral			L.Midfoot.Superior			L.Toe			L.Elbow			L.Wrist			R.Elbow			R.Wrist			
		X1	Y1	Z1	X2	Y2	Z2	X3	Y3	Z3	X4	Y4	Z4	X5	Y5	Z5	X6	Y6	Z6	X7	Y7	Z7	X8	Y8	Z8	X9	Y9	Z9	X10	Y10	Z10	X11	Y11	Z11	X12	Y12	Z12	X13	Y13	Z13	X14	Y14	Z14	X15	Y15	Z15	X16	Y16	Z16	X17	Y17	Z17	X18	Y18	Z18	X19	Y19	Z19	X20	Y20	Z20	X21	Y21	Z21	X22	Y22	Z22	X23	Y23	Z23	X24	Y24	Z24	X25	Y25	Z25	X26	Y26	Z26	X27	Y27	Z27	X28	Y28	Z28	X29	Y29	Z29	X30	Y30	Z30	X31	Y31	Z31	X32	Y32	Z32	X33	Y33	Z33	

124	49.159000000000	836.638782071198	1008.956218929389	520.913505926419	1001.635276214575	1430.518750339138	315.864075378376	1128.243562522112	1357.778700157962	456.947078322498	1078.864078100592	1435.051153477794	642.060493764706	1014.959934048509	1491.701986621245	471.133788698798	1074.005485153026	936.343298112145	609.677010877839	1029.183675688747	957.532298807700	337.995199203261	1073.905976585838	725.954622284551	584.531203616479	974.965107155319	631.286578440963	652.111653512070	1034.112086725180	566.483763656805	570.279039331918	1017.544107791429	483.659854864963	577.198383315685	1102.571940345562	767.048445168488	365.968511582453	1042.463174454049	639.507485630650	296.600463927581	1146.380106300337	578.836955731976	353.230931127642	1165.552534232172	510.907429750552	352.893594590417	1145.142641920560	438.159203893642	343.098248146222	1068.300181210689	313.862297924435	293.872367494120	1146.957790637231	208.248661393182	348.805642402895	982.195152856961	398.860993853015	585.089489591640	902.236022057653	302.036508436659	647.873113635962	935.278184501246	203.652146695216	584.075932272217	792.197162512118	43.357656641413	548.540908648003	960.627780029582	95.251049171946	592.638435637156	871.250424018416	36.576029977391	628.166994272877	1079.960327875100	41.933980391224	628.196752414414	1046.966102609952	41.643270946536	388.424969708079	1120.459835376068	38.806067987815	307.954604877428	1200.258880285652	105.993481110649	330.084953822238	1329.678862718808	61.022062962419	302.787326019813	881.134887211444	1092.741598938253	228.213139000400	881.498127386292	833.928322214816	198.532842980901	1209.314089218666	1122.632612617395	760.929414017638	1443.541683036402	1169.721635785443	682.573628260671	
125	49.172000000000	838.112322080415	1007.997115495438	518.174611027280	1001.718882222403	1429.564770114955	312.673708424683	1128.378831586125	1357.639684886659	454.146943066295	1078.140173466002	1434.781297475103	639.124871470434	1014.477427371735	1491.190923720685	467.720951058915	1075.595653666589	935.949195689168	607.740788517412	1031.246226690758	956.386695102973	336.101137130518	1074.925687665822	725.167061411278	583.180636308436	974.900136666923	630.995192946385	650.484591339276	1033.767332207231	565.607995491575	569.077634385704	1016.447225640426	482.680306454235	575.801605223793	1104.076895748519	764.630082440672	364.455729149744	1042.306055765305	637.538560623779	296.163982814328	1145.927716617048	576.510750685086	353.232846307421	1163.910729769458	507.838317325252	353.447636904955	1142.854023267102	435.019106874184	343.635368516195	1064.364926350406	311.645492194840	294.614478604625	1140.986448582735	205.041334672212	350.289918340320	980.257151145896	398.205303181061	584.044272999224	899.418838185186	302.358394139002	647.433718907177	931.296548446388	203.452393811554	583.782263749679	786.971569864694	43.668778291015	548.843123488754	955.402634573875	95.043231378812	592.413407369466	866.072957687086	36.562083430044	628.292955451615	1074.794622563679	41.692936226231	628.238453510575	1037.938914670557	40.261772995509	389.590500054608	1111.474004605582	37.265367887761	309.073214075764	1192.332024283144	102.734711661704	332.290564382422	1321.322050105723	55.868702104215	304.609168999524	882.283626056480	1091.446771368936	225.133280666709	884.032470435849	832.558914924308	195.365715591549	1207.965851502539	1121.281308116857	757.193668275392	1442.149766627883	1169.033490901123	678.810152535933	
126	49.185000000000	839.579600575459	1007.255251075598	515.373226796273	1001.921584594569	1428.767922318048	309.391766829716	1128.596032881952	1357.628716311566	451.266446395176	1077.534428380693	1434.684862196442	636.097695968707	1014.093076696432	1490.853187948707	464.189800466294	1077.163342455330	935.666277521382	605.596485595891	1033.208559667482	955.539374441843	334.042053068598	1075.953012317559	724.503271701514	581.620748806124	974.896712551858	630.835269013106	648.708244040018	1033.474985154246	564.866659433421	567.703661750674	1015.484132710044	481.775331078053	574.289725154324	1105.538267013468	762.640073464850	363.003255645499	1042.514552881180	636.114844212630	295.410494620685	1145.629201184290	574.684588156956	353.240569701671	1162.561135316461	505.355702019075	353.856237717329	1140.991412894144	432.475050340096	343.915996078197	1061.248281783604	309.931119769252	294.870697155715	1135.834962791412	202.493334155132	351.396330692840	978.405552085784	397.661380377537	582.928332505632	896.655337005299	302.848575521718	646.937266429433	927.382862007282	203.393169796741	583.494905773017	781.762386645919	44.174583656467	549.219648432406	950.261646062907	94.891071760243	592.249433643142	860.939321814881	36.609618561508	628.449355889830	1069.671639651060	41.406649737640	628.288144560420	1030.057710146448	39.246786794761	390.322887070117	1103.680876583010	36.256256510369	309.807047378017	1185.337879218844	100.296705035694	334.061829475152	1314.017434173480	51.934706191478	306.088155027945	883.996507646579	1090.157261921123	221.826870325348	887.419974477597	831.191403196567	191.969525413765	1205.999251384040	1119.750491816646	753.521988873031	1440.563522582114	1166.988271159133	675.381880601848	
127	49.198000000000	841.004055792748	1006.775392347762	512.524106592004	1002.228905781068	1428.184103039758	306.059998056845	1128.894296960037	1357.755343255428	448.313383429849	1077.106427645663	1434.790542855337	632.989538450761	1013.832191074190	1490.714459719118	460.600002361387	1078.651544003673	935.536692929558	603.232404948721	1035.006640344984	955.031886968496	331.770829590652	1076.917023964119	724.016339601771	579.824927859422	974.964655039280	630.830235303692	646.796521696727	1033.275387903299	564.302022140021	566.162449938744	1014.732666234157	480.954409129819	572.711909237358	1106.975343407227	761.251835772770	361.580194592657	1043.163694132694	635.287059579800	294.345761699971	1145.589652732592	573.440695584110	353.138969072652	1161.592948579895	503.509816520879	354.035310423895	1139.614668677855	430.553257809015	343.915589945037	1058.947239144396	308.760686608758	294.640982608152	1131.480235985835	200.618303411280	352.114945324484	976.696991871504	397.243313025140	581.772508206237	893.976388967260	303.533385159347	646.381756400302	923.573230293456	203.497975437204	583.225819931558	776.582117233692	44.937456727598	549.660288259429	945.236835300887	94.819959601786	592.169375615745	855.857989285800	36.755969230102	628.635956426680	1064.596073796909	41.071766710204	628.347537303109	1023.279767694917	38.606123818141	390.691145049081	1097.010110806554	35.716011048034	310.208043763332	1179.230294740064	98.644606727478	335.361713807496	1307.703713561543	49.151279965912	307.170903119016	886.242396393636	1088.947854228427	218.313990203652	891.660439640697	829.907756502747	188.369335053419	1203.435310282620	1118.103855229736	749.932456517658	1438.790828478003	1163.550530984724	672.294455509522	
128	49.211000000000	842.357518095636	1006.569102983713	509.619737379967	1002.619910078866	1427.849520774685	302.712932171711	1129.263347760883	1358.018016008782	445.297045661613	1076.882972866352	1435.106661280191	629.811692708281	1013.702483445956	1490.781328878176	457.006143032453	1080.011522920650	935.594352336297	600.648148461944	1036.611298683481	954.866396069067	329.248498067458	1077.773213401415	723.750468691390	577.785603757084	975.138984909728	630.988916472780	644.771833530991	1033.242575664693	563.942782386073	564.472562927045	1014.302660612397	480.212460773367	571.133962934925	1108.413299305938	760.554789678772	360.134547705776	1044.253046899188	635.027188277871	292.996359983182	1145.851178426341	572.756456971175	352.800676082101	1161.015054020485	502.253759162338	353.915520365442	1138.694148477128	429.197366985620	343.634159691597	1057.337754072036	308.100038847628	293.974986864462	1127.792761778713	199.350502430107	352.474304759061	975.211628983118	396.952205202383	580.613663580371	891.430333827918	304.431687877899	645.766595682319	919.914907986951	203.783940026033	582.986570059943	771.448735680292	46.023961591342	550.145058611043	940.359199281107	94.850531308629	592.185592722252	850.835661974757	37.046872308138	628.847720993131	1059.567638677248	40.688270622127	628.417360854025	1017.433921479200	38.301550920330	390.778676530708	1091.269707950941	35.543261501628	310.345612753325	1173.858239134001	97.667926470659	336.209761872452	1302.209744773978	47.345569680473	307.862842009549	888.968259205089	1087.879715491651	214.610598363794	896.758461540102	828.781351242091	184.588116510574	1200.299767964536	1116.406513272055	746.440866351408	1436.807031624929	1158.681945236300	669.546177909956	
129	49.224000000000	843.620124538954	1006.614905714660	506.630900218790	1003.070623301901	1427.775995303735	299.370779469771	1129.682995914625	1358.407741416803	442.227441592906	1076.847477800527	1435.621366099576	626.574830358264	1013.692761817334	1491.042388148133	453.447167374285	1081.206449000198	935.859308622236	597.855321357634	1038.031551351900	955.008266358220	326.455281535179	1078.517647048358	723.734643575358	575.517139838880	975.481795593912	631.302833342282	642.661058084869	1033.483161012367	563.800169395568	562.662523263651	1014.331521957041	479.529461900977	569.628010406498	1109.873573686856	760.532498499115	358.592077466012	1045.679960515316	635.229511145926	291.405380584182	1146.374480135598	572.515302972373	352.104981776777	1160.756232514417	501.470348275857	353.454443403342	1138.121162135336	428.292907180245	343.093315894216	1056.211596810041	307.854821340610	292.959744226918	1124.580455029631	198.570307603189	352.532065674166	974.051052042069	396.776531075460	579.488199336721	889.084183527258	305.555877182589	645.090967466092	916.465690391777	204.262929882116	582.785792846537	766.386698729859	47.504159578981	550.647037353102	935.657587209468	94.998209951574	592.298838745755	845.877452734475	37.536446996350	629.074319246757	1054.579368319938	40.260671947646	628.496684693635	1012.278846848125	38.263985463585	390.671931755750	1086.204931669971	35.622084882408	310.295239351078	1169.015566422514	97.212612406536	336.669798598178	1297.307696121430	46.289164176713	308.214864774293	892.103593263522	1086.993234734871	210.725930303961	902.721101149808	827.871331558556	180.645174153184	1196.621523609635	1114.721559475006	743.059541676242	1434.548434562861	1152.344199572548	667.127895049799	
